<svg id="visual" viewBox="0 0 960 300" width="960" height="300" xmlns="http://www.w3.org/2000/svg" xmlns:xlink="http://www.w3.org/1999/xlink" version="1.1"><rect x="0" y="0" width="960" height="300" fill="#001220"></rect><path d="M0 200L20 197.3C40 194.7 80 189.3 120 176.2C160 163 200 142 240 131.3C280 120.7 320 120.3 360 128.2C400 136 440 152 480 153.7C520 155.3 560 142.7 600 149.5C640 156.3 680 182.7 720 192.2C760 201.7 800 194.3 840 186.8C880 179.3 920 171.7 940 167.8L960 164L960 0L940 0C920 0 880 0 840 0C800 0 760 0 720 0C680 0 640 0 600 0C560 0 520 0 480 0C440 0 400 0 360 0C320 0 280 0 240 0C200 0 160 0 120 0C80 0 40 0 20 0L0 0Z" fill="#c62368"></path><path d="M0 123L20 120.8C40 118.7 80 114.3 120 108.7C160 103 200 96 240 104.5C280 113 320 137 360 152C400 167 440 173 480 163.7C520 154.3 560 129.7 600 123C640 116.3 680 127.7 720 132.5C760 137.3 800 135.7 840 133C880 130.3 920 126.7 940 124.8L960 123L960 0L940 0C920 0 880 0 840 0C800 0 760 0 720 0C680 0 640 0 600 0C560 0 520 0 480 0C440 0 400 0 360 0C320 0 280 0 240 0C200 0 160 0 120 0C80 0 40 0 20 0L0 0Z" fill="#e84e55"></path><path d="M0 106L20 104.5C40 103 80 100 120 99C160 98 200 99 240 101.7C280 104.3 320 108.7 360 101.7C400 94.7 440 76.3 480 72.3C520 68.3 560 78.7 600 78.7C640 78.7 680 68.3 720 68C760 67.7 800 77.3 840 82.7C880 88 920 89 940 89.5L960 90L960 0L940 0C920 0 880 0 840 0C800 0 760 0 720 0C680 0 640 0 600 0C560 0 520 0 480 0C440 0 400 0 360 0C320 0 280 0 240 0C200 0 160 0 120 0C80 0 40 0 20 0L0 0Z" fill="#fa7e44"></path><path d="M0 36L20 43.8C40 51.7 80 67.3 120 74.5C160 81.7 200 80.3 240 73.8C280 67.3 320 55.7 360 49C400 42.3 440 40.7 480 42.5C520 44.3 560 49.7 600 50C640 50.3 680 45.7 720 48.2C760 50.7 800 60.3 840 58.2C880 56 920 42 940 35L960 28L960 0L940 0C920 0 880 0 840 0C800 0 760 0 720 0C680 0 640 0 600 0C560 0 520 0 480 0C440 0 400 0 360 0C320 0 280 0 240 0C200 0 160 0 120 0C80 0 40 0 20 0L0 0Z" fill="#fcaf3c"></path></svg>