<svg id="visual" viewBox="0 0 960 200" width="960" height="200" xmlns="http://www.w3.org/2000/svg" xmlns:xlink="http://www.w3.org/1999/xlink" version="1.1"><rect x="0" y="0" width="960" height="200" fill="#001220"></rect><path d="M0 29L10.7 28.5C21.3 28 42.7 27 64 33.3C85.3 39.7 106.7 53.3 128 62.2C149.3 71 170.7 75 192 73.5C213.3 72 234.7 65 256 61.3C277.3 57.7 298.7 57.3 320 54.7C341.3 52 362.7 47 384 49.2C405.3 51.3 426.7 60.7 448 59.3C469.3 58 490.7 46 512 47C533.3 48 554.7 62 576 62.5C597.3 63 618.7 50 640 54.8C661.3 59.7 682.7 82.3 704 95C725.3 107.7 746.7 110.3 768 103.7C789.3 97 810.7 81 832 81.3C853.3 81.7 874.7 98.3 896 93.3C917.3 88.3 938.7 61.7 949.3 48.3L960 35L960 201L949.3 201C938.7 201 917.3 201 896 201C874.7 201 853.3 201 832 201C810.7 201 789.3 201 768 201C746.7 201 725.3 201 704 201C682.7 201 661.3 201 640 201C618.7 201 597.3 201 576 201C554.7 201 533.3 201 512 201C490.7 201 469.3 201 448 201C426.7 201 405.3 201 384 201C362.7 201 341.3 201 320 201C298.7 201 277.3 201 256 201C234.7 201 213.3 201 192 201C170.7 201 149.3 201 128 201C106.7 201 85.3 201 64 201C42.7 201 21.3 201 10.7 201L0 201Z" fill="#c62368"></path><path d="M0 63L10.7 61.8C21.3 60.7 42.7 58.3 64 66.8C85.3 75.3 106.7 94.7 128 94.3C149.3 94 170.7 74 192 79C213.3 84 234.7 114 256 125.5C277.3 137 298.7 130 320 127C341.3 124 362.7 125 384 116.5C405.3 108 426.7 90 448 90.5C469.3 91 490.7 110 512 114.3C533.3 118.7 554.7 108.3 576 96.8C597.3 85.3 618.7 72.7 640 67.3C661.3 62 682.7 64 704 72.8C725.3 81.7 746.7 97.3 768 108.2C789.3 119 810.7 125 832 126.3C853.3 127.7 874.7 124.3 896 115C917.3 105.7 938.7 90.3 949.3 82.7L960 75L960 201L949.3 201C938.7 201 917.3 201 896 201C874.7 201 853.3 201 832 201C810.7 201 789.3 201 768 201C746.7 201 725.3 201 704 201C682.7 201 661.3 201 640 201C618.7 201 597.3 201 576 201C554.7 201 533.3 201 512 201C490.7 201 469.3 201 448 201C426.7 201 405.3 201 384 201C362.7 201 341.3 201 320 201C298.7 201 277.3 201 256 201C234.7 201 213.3 201 192 201C170.7 201 149.3 201 128 201C106.7 201 85.3 201 64 201C42.7 201 21.3 201 10.7 201L0 201Z" fill="#e1435a"></path><path d="M0 137L10.7 133.7C21.3 130.3 42.7 123.7 64 115.2C85.3 106.7 106.7 96.3 128 97.8C149.3 99.3 170.7 112.7 192 116.3C213.3 120 234.7 114 256 115C277.3 116 298.7 124 320 125.2C341.3 126.3 362.7 120.7 384 117C405.3 113.3 426.7 111.7 448 114.5C469.3 117.3 490.7 124.7 512 126.2C533.3 127.7 554.7 123.3 576 125.2C597.3 127 618.7 135 640 137.5C661.3 140 682.7 137 704 127.3C725.3 117.7 746.7 101.3 768 104C789.3 106.7 810.7 128.3 832 137.7C853.3 147 874.7 144 896 137.3C917.3 130.7 938.7 120.3 949.3 115.2L960 110L960 201L949.3 201C938.7 201 917.3 201 896 201C874.7 201 853.3 201 832 201C810.7 201 789.3 201 768 201C746.7 201 725.3 201 704 201C682.7 201 661.3 201 640 201C618.7 201 597.3 201 576 201C554.7 201 533.3 201 512 201C490.7 201 469.3 201 448 201C426.7 201 405.3 201 384 201C362.7 201 341.3 201 320 201C298.7 201 277.3 201 256 201C234.7 201 213.3 201 192 201C170.7 201 149.3 201 128 201C106.7 201 85.3 201 64 201C42.7 201 21.3 201 10.7 201L0 201Z" fill="#f3664c"></path><path d="M0 167L10.7 165.3C21.3 163.7 42.7 160.3 64 152.7C85.3 145 106.7 133 128 132.7C149.3 132.3 170.7 143.7 192 143.2C213.3 142.7 234.7 130.3 256 130.8C277.3 131.3 298.7 144.7 320 148.2C341.3 151.7 362.7 145.3 384 141.5C405.3 137.7 426.7 136.3 448 139.8C469.3 143.3 490.7 151.7 512 151.2C533.3 150.7 554.7 141.3 576 135C597.3 128.7 618.7 125.3 640 124.5C661.3 123.7 682.7 125.3 704 128C725.3 130.7 746.7 134.3 768 134.8C789.3 135.3 810.7 132.7 832 128.5C853.3 124.3 874.7 118.7 896 122.8C917.3 127 938.7 141 949.3 148L960 155L960 201L949.3 201C938.7 201 917.3 201 896 201C874.7 201 853.3 201 832 201C810.7 201 789.3 201 768 201C746.7 201 725.3 201 704 201C682.7 201 661.3 201 640 201C618.7 201 597.3 201 576 201C554.7 201 533.3 201 512 201C490.7 201 469.3 201 448 201C426.7 201 405.3 201 384 201C362.7 201 341.3 201 320 201C298.7 201 277.3 201 256 201C234.7 201 213.3 201 192 201C170.7 201 149.3 201 128 201C106.7 201 85.3 201 64 201C42.7 201 21.3 201 10.7 201L0 201Z" fill="#fc8a40"></path><path d="M0 151L10.7 156.5C21.3 162 42.7 173 64 175C85.3 177 106.7 170 128 170.5C149.3 171 170.7 179 192 180C213.3 181 234.7 175 256 174C277.3 173 298.7 177 320 177.5C341.3 178 362.7 175 384 175.2C405.3 175.3 426.7 178.7 448 180C469.3 181.3 490.7 180.7 512 178C533.3 175.3 554.7 170.7 576 172C597.3 173.3 618.7 180.7 640 184C661.3 187.3 682.7 186.7 704 182.7C725.3 178.7 746.7 171.3 768 164.5C789.3 157.7 810.7 151.3 832 150.7C853.3 150 874.7 155 896 155.3C917.3 155.7 938.7 151.3 949.3 149.2L960 147L960 201L949.3 201C938.7 201 917.3 201 896 201C874.7 201 853.3 201 832 201C810.7 201 789.3 201 768 201C746.7 201 725.3 201 704 201C682.7 201 661.3 201 640 201C618.7 201 597.3 201 576 201C554.7 201 533.3 201 512 201C490.7 201 469.3 201 448 201C426.7 201 405.3 201 384 201C362.7 201 341.3 201 320 201C298.7 201 277.3 201 256 201C234.7 201 213.3 201 192 201C170.7 201 149.3 201 128 201C106.7 201 85.3 201 64 201C42.7 201 21.3 201 10.7 201L0 201Z" fill="#fcaf3c"></path></svg>